<?xml version='1.0' encoding='utf-8'?>
<svg xmlns="http://www.w3.org/2000/svg" width="1325.6mm" height="1325.6mm" version="1.1" viewBox="0 0 1325.6 1325.6"> <g transform="translate(-1324.4 -2002.8)"> <path d="m1324.4 2002.8h1325.6v1325.6h-1325.6z" fill="#ffc357" stop-color="#000000" stroke-linecap="round" stroke-linejoin="round" stroke-width=".7"/> <path d="m1938.1 2289.3c-18.282 0.3602-39.412 13.095-43.3 17.72l-0.8875 0.8573c-23.901 23.629-23.901 62.241 0 85.87l102.34 101.2c2.422 2.3944 6.3154 2.3944 8.7374 0l102.39-101.2c23.901-23.629 23.901-62.241 0-85.87l-0.8976-0.8573c-23.901-23.629-62.74-23.629-86.641 0l-19.22 18.984-19.176-18.984c-11.951-11.814-27.657-17.72-43.342-17.72zm120.38 12.591c-0.7789 0.081-1.5578 0.1611-2.3341 0.2798-0.7748 0.1006-1.5396 0.2395-2.3129 0.3844-0.7708 0.1409-1.5376 0.318-2.3016 0.5032-0.7648 0.1811-1.5236 0.3763-2.2806 0.5997-0.7567 0.2234-1.5135 0.471-2.2593 0.7266-0.7467 0.2596-1.4914 0.5273-2.2274 0.8252 1.4752-0.5897 2.9746-1.107 4.4867-1.5518 1.5115-0.4427 3.0421-0.809 4.5822-1.1009 1.5397-0.2978 3.0894-0.5152 4.647-0.6641zm9.369 0c1.5578 0.1409 3.1063 0.3684 4.6468 0.6642 1.5396 0.2939 3.0709 0.6602 4.583 1.1009 1.5094 0.4428 3.0143 0.9601 4.4857 1.5518-0.7366-0.2939-1.4793-0.5656-2.2268-0.8252-0.7467-0.2596-1.5054-0.5072-2.2589-0.7266-1.5115-0.4427-3.0421-0.809-4.583-1.1009-1.5397-0.2958-3.0888-0.5152-4.6468-0.6642zm-148.13 3.33c-0.7346 0.2938-1.4612 0.6098-2.1846 0.9419-0.7225 0.33-1.443 0.6782-2.1517 1.0506 1.4189-0.7387 2.866-1.4049 4.3363-1.9925zm36.789 0c1.4713 0.5876 2.9186 1.2558 4.3363 1.9925-1.423-0.7367-2.8632-1.4049-4.3363-1.9925zm-53.856 11.51h0.011c-0.1208 0.1208-0.2355 0.2456-0.3542 0.3643 0.1207-0.1207 0.2254-0.2455 0.3401-0.3643zm-2.9551 3.2122c-0.306 0.3643-0.6139 0.7306-0.9098 1.1009 0.2959-0.3703 0.6018-0.7366 0.9098-1.1009zm-5.7815 8.4801c-1.1191 2.1001-2.0745 4.2702-2.859 6.4774 0.7869-2.207 1.7389-4.3775 2.859-6.4774zm-3.5868 8.694c-0.6742 2.2344-1.1733 4.5075-1.5115 6.7988-0.2254 1.5276-0.3743 3.0653-0.4488 4.6042 0.081-1.5377 0.2275-3.0766 0.4488-4.6042 0.3341-2.2911 0.8393-4.5646 1.5115-6.7988zm-1.9502 16.178c0.04 0.7186 0.08 1.4371 0.161 2.1522 0.081 0.7668 0.161 1.5276 0.2777 2.2913 0.2255 1.5256 0.5253 3.056 0.8997 4.5611 0.1811 0.7527 0.3864 1.4914 0.6118 2.2378-0.6742-2.2344-1.1733-4.5077-1.5115-6.7989-0.2173-1.4752-0.3622-2.9583-0.4387-4.4435zm3.5227 15.664c0.5978 1.4531 1.268 2.8722 2.0126 4.2722-0.7466-1.3967-1.4189-2.8261-2.0126-4.2722zm7.0557 11.874c0.2073 0.2536 0.4126 0.4971 0.6219 0.7507-0.2093-0.2496-0.4186-0.4971-0.6219-0.7507zm-4.3571 103.67v0.011c-0.1611-0.01-0.3281 0.02-0.4609 0.081-2.6342 1.5175-0.081 17.466 2.5266 31.393 0.2093-0.2073 0.4267-0.3985 0.6441-0.5998 0.5736-0.5293 1.1653-1.0325 1.7892-1.5095 1.5457-1.1915 3.2564-2.2221 5.1395-3.0624 2.2569-1.0063 4.5379-1.7571 6.8313-2.2803 0.9821-0.2255 1.9703-0.4026 2.9547-0.5455-0.9842 0.1409-1.9744 0.32-2.9547 0.5455-2.292 0.5232-4.5744 1.282-6.8313 2.2909-1.8818 0.8413-3.5898 1.8617-5.1395 3.0518-0.6199 0.477-1.2197 0.9822-1.7892 1.5095-7.1332 6.5831-10.491 16.975-12.152 27.978-2.1272 14.083-1.5538 30.463 0 46.287 2.6285 26.806 8.2133 51.863 9.8719 58.964-7.6377 14.346-14.325 29.284-19.69 44.509-9.6812 27.473-19.24 82.532-28.802 151.12-9.5616 68.588-18.857 150.18-27.025 228.55-11.477 110.11-19.948 205.21-24.284 255.54h15.331v0.011h353.23v-0.011h15.374c-4.3791-35.452-10.495-87.814-15.9-146.1-4.6701-50.354-8.6133-103.39-9.9362-149.09-1.3263-45.69 0.2254-84.425 5.5036-104.15 7.9932-29.794 23.468-58.568 37.689-86.535 14.22-27.967 27.357-55.149 29.241-82.884 1.1693-17.206-2.8358-30.026-10.493-38.396-7.6563-8.3697-18.12-11.652-27.817-12.581-12.169-1.1693-16.674 1.3022-23.802 3.1697 2.3349-4.8871 3.8764-5.9294 5.5571-14.23 3.246-16.03 2.0428-37.822-14.979-56.522-17.373-19.088-40.518-19.241-57.432-14.519-5.4369 1.5155-5.2035 2.4723-9.4544 4.465 3.69-7.2405 5.6149-9.0601 9.2722-20.258 3.5988-11.021 6.3336-23.174 6.0494-35.184-0.2737-11.612-3.5974-23.392-12.131-32.464 7.3753-13.098 16.883-30.577 14.636-33.106-0.1812-0.2254-0.5334-0.318-0.9943-0.2878-4.5477 0.2737-20.932 12.076-31.586 20.097-8.821-4.4018-18.352-6.5636-28.106-6.6705-3.801-0.04-7.6353 0.2274-11.478 0.793-17.079 2.5174-34.398 10.517-51.266 22.271-4.304-5.1103-11.775-13.328-21.04-20.857-7.4145-6.0257-16.066-11.742-25.654-15.044h-0.01c-6.5759-2.262-13.763-3.3219-20.954-2.2807 0.2214-0.04 0.4327-0.06 0.6541-0.1007-7.6605-10.811-17.093-23.244-20.128-23.384zm12.955 42.282h0.011c-0.1812 0.1811-0.3724 0.3884-0.5575 0.5997 0.1811-0.2073 0.3602-0.4126 0.5454-0.5997zm-0.9621 1.0908c-0.161 0.2174-0.3421 0.4388-0.5132 0.6763 0.161-0.2355 0.3382-0.4609 0.5132-0.6763zm-0.5575 0.7407c-0.161 0.2375-0.3361 0.485-0.5031 0.7406 0.161-0.2576 0.3301-0.5011 0.5031-0.7406zm-1.5094 2.4626c-0.1409 0.2798-0.2959 0.5696-0.4388 0.8655 0.1409-0.2959 0.2878-0.5857 0.4388-0.8655zm-1.2539 2.677c-0.161 0.4307-0.3361 0.8775-0.5032 1.3384 0.1611-0.4609 0.3281-0.9056 0.5032-1.3384zm179.35 2.2695c0.483 0.3643 0.958 0.7326 1.435 1.111-0.475-0.3804-0.952-0.7487-1.435-1.111zm2.109 1.6503c0.644 0.5274 1.276 1.0808 1.906 1.6383-0.63-0.5595-1.262-1.1089-1.906-1.6383zm-40.344 0.5877c1.4411 0 2.8571 0.06 4.2614 0.1812-1.4049-0.1007-2.8193-0.1812-4.2614-0.1812zm0 0v0.011c-1.3948 0-2.8125 0.06-4.2402 0.161 1.429-0.1006 2.8481-0.1811 4.2402-0.1811zm-4.8078 0.2275c-1.433 0.1207-2.8795 0.2797-4.3465 0.4931-7.304 1.0747-15.019 3.4786-22.945 7.0774 7.9265-3.601 15.641-6.0117 22.945-7.0881 1.4672-0.2174 2.9145-0.3643 4.3465-0.481zm9.8937 0.02c1.3787 0.1207 2.736 0.318 4.0797 0.5676-1.3445-0.2496-2.701-0.4348-4.0797-0.5676zm-147.79 0.04c-0.1409 0.5133-0.2798 1.0426-0.4046 1.584 0.1208-0.5414 0.2697-1.0687 0.4046-1.584zm152.99 0.7709c0.4488 0.1006 0.9017 0.1811 1.3485 0.2898-0.4448-0.1006-0.9017-0.1811-1.3485-0.2898zm32.689 0.6541c0.6964 0.634 1.3867 1.2861 2.0658 1.9603-0.6782-0.6722-1.3746-1.3263-2.0658-1.9603zm-29.059 0.2576c0.4609 0.1409 0.9157 0.2878 1.3706 0.4388-0.4569-0.1409-0.9077-0.2999-1.3706-0.4388zm-157.16 0.4609c-0.1006 0.475-0.2093 0.95-0.3079 1.4471 0.1006-0.4931 0.2073-0.9721 0.3079-1.4471zm159.56 0.3301c0.4568 0.161 0.9056 0.3441 1.3605 0.5233-0.4508-0.1812-0.9057-0.3563-1.3605-0.5233zm2.5272 1.0063c0.3905 0.161 0.7789 0.3401 1.1674 0.5233-0.3885-0.1812-0.7749-0.3542-1.1674-0.5233zm2.3872 1.1351c0.3945 0.2073 0.799 0.3865 1.1895 0.5998-0.3905-0.2154-0.795-0.3985-1.1895-0.5998zm-165.05 0.31c-0.1208 0.7044-0.2416 1.431-0.3543 2.1736-0.2133 1.4149-0.4045 2.8717-0.5575 4.3793 0.1409-1.5034 0.3321-2.97 0.5434-4.3793 0.1007-0.7447 0.2375-1.4692 0.3643-2.1736zm168.37 1.5296c0.3884 0.2395 0.7788 0.4951 1.1673 0.7507-0.3864-0.2536-0.7769-0.5092-1.1673-0.7507zm2.3229 1.5215c0.3925 0.2737 0.787 0.5575 1.1794 0.8474-0.3904-0.2899-0.7829-0.5716-1.1794-0.8474zm-62.379 1.1553c-4.561 2.2499-9.1841 4.8798-13.823 7.8698 4.6389-2.991 9.262-5.6187 13.823-7.8698zm64.435 0.3542c0.467 0.3562 0.9299 0.7225 1.3928 1.1009-0.4609-0.3804-0.9238-0.7447-1.3928-1.1009zm2.4947 2.0451c0.2979 0.2616 0.6018 0.5192 0.8976 0.7929-0.2958-0.2717-0.6017-0.5313-0.8976-0.7929zm-109.04 2.1629c0.4186 0.467 0.8151 0.9097 1.1995 1.3485 0.2073 0.2335 0.4187 0.475 0.6119 0.6964-0.1812-0.2254-0.4046-0.4649-0.6119-0.6964-0.3743-0.4287-0.7909-0.8936-1.1995-1.3485zm111.41 0.02c0.2395 0.2314 0.479 0.4387 0.7165 0.6742v0.011c-0.2395-0.2395-0.477-0.4529-0.7165-0.6843zm-179.12 8.1159c-0.04 1.743-0.04 3.5223-0.04 5.3212 0.015 1.8134 0.06 3.6471 0.1208 5.5038 0.06 1.8114 0.1409 3.6453 0.2475 5.482-0.1006-1.8415-0.1811-3.6686-0.2475-5.482-0.06-1.8577-0.1006-3.6902-0.1208-5.5038-0.014-1.8033-0.01-3.5764 0.04-5.3212zm0.3542 16.607c0.06 0.9339 0.1208 1.8657 0.1811 2.805 0.04 0.6984 0.1007 1.4008 0.1409 2.0988-0.1207-1.6363-0.2375-3.2762-0.33-4.9038zm0.5474 7.5484c0.04 0.5152 0.081 1.0244 0.1409 1.5397 0.06 0.6984 0.1409 1.4008 0.2073 2.0984 0.081 0.8996 0.1812 1.7932 0.2798 2.6874-0.1006-0.8976-0.2073-1.7892-0.2898-2.6874-0.06-0.6964-0.1208-1.4008-0.1812-2.0984-0.04-0.5132-0.1006-1.0285-0.1409-1.5397zm0.6441 6.6061c0.1811 1.7288 0.3904 3.4515 0.5977 5.1612-0.2073-1.7107-0.4146-3.4277-0.5977-5.1612zm1.4793 11.96c0.4609 3.2937 0.9439 6.5185 1.445 9.615 0.954 5.9119 1.9503 11.386 2.8803 16.157-0.9258-4.7637-1.9301-10.255-2.8803-16.157-0.5011-3.1033-0.9861-6.3137-1.445-9.615zm214.74 35.815c0.8976 0.02 1.8013 0.081 2.6981 0.161-1.7952-0.161-3.5941-0.2073-5.386-0.1208 0.8977-0.04 1.7913-0.06 2.6879-0.04zm-5.3647 0.2153c-1.7872 0.1812-3.5684 0.4529-5.3318 0.8051 1.763-0.3502 3.546-0.6259 5.3318-0.8051zm13.427 0.8695c5.346 1.3585 10.607 4.1018 15.6 8.8121-4.992-4.7075-10.256-7.4532-15.6-8.8121zm24.315 19.68c0.5555 0.9278 1.0707 1.8556 1.5397 2.7839-0.2939-0.5777-0.638-1.1472-0.9621-1.7229-0.2073-0.3502-0.3663-0.7064-0.5776-1.0606zm-3.4905 56.994a7.6183 7.6265 0 0 0-1.1251 3.255 7.6183 7.6265 0 0 1 1.1251-3.255zm-1.0707 4.4433a7.6183 7.6265 0 0 0 0.3844 2.2592 7.6183 7.6265 0 0 1-0.3844-2.2592zm24.958 3.4158c-3.3861 0.5193-6.4632 1.1814-8.9297 1.7873 2.4665-0.6079 5.5436-1.27 8.9297-1.7873zm-23.984 0.04a7.6183 7.6265 0 0 0 1.3283 1.6785 7.6183 7.6265 0 0 1-1.3283-1.6785zm45.687 0.1006c1.6987 0.3824 3.3148 0.8795 4.8392 1.4974 3.0493 1.2418 5.7261 2.987 7.8915 5.3534v0.011c0.5374 0.5897 1.0647 1.2237 1.5618 1.916-0.4951-0.6923-1.0264-1.3182-1.5618-1.9059v-0.011c-2.1654-2.3669-4.8422-4.1193-7.8915-5.3641-1.5236-0.6219-3.1409-1.113-4.8392-1.4974zm-43.31 2.4623a7.6183 7.6265 0 0 0 2.0986 0.8996 7.6183 7.6265 0 0 1-2.0986-0.8996zm6.6489 0.8996a7.6183 7.6265 0 0 1-3.4587 0.322 7.6183 7.6265 0 0 0 3.4587-0.322zm50.955 5.4287c0.06 0.081 0.1207 0.1812 0.1811 0.2878-0.04-0.06-0.081-0.1207-0.1208-0.1811-0.02-0.04-0.04-0.081-0.06-0.1006zm2.5486 4.6577c0.04 0.081 0.081 0.1408 0.1006 0.2274-0.018-0.04-0.04-0.081-0.06-0.1208-0.015-0.04-0.02-0.06-0.04-0.1006zm2.3984 20.45c-0.2073 2.938-0.5655 5.9097-1.0707 8.9192 0.5052-3.0101 0.8715-5.9812 1.0707-8.9192z" fill="#f89a41"/> <path d="m2013.8 2527.5v0.011c-3.0101 0-6.097 0.25-9.2688 0.7163-16.922 2.4942-36.043 12.03-54.852 26.948-37.618 29.836-73.806 80.854-92.686 134.43-8.6681 24.597-18.774 80.965-28.424 150.19-9.6506 69.222-19.103 151.85-27.372 231.18-12.168 116.75-20.51 211.62-24.409 257.38h358.06c-4.076-32.636-10.14-84.178-15.933-146.65-4.7517-51.238-8.7793-105.26-10.137-152.12-1.3592-46.855-0.2945-86.107 6.1209-110.01 8.7431-32.593 25.067-62.604 39.354-90.7 14.286-28.096 26.35-54.262 27.969-78.089 0.9952-14.663-2.21-22.607-6.5988-27.404-4.3899-4.7983-10.828-7.0884-18.288-7.8035-14.921-1.4282-31.778 4.2544-31.778 4.2544a7.7223 7.7305 0 0 1-9.0516-11.504s6.0125-9.2902 8.6715-22.423c2.6589-13.132 2.1338-28.878-11.461-43.814-13.237-14.544-28.63-14.178-42.642-10.267-14.012 3.9107-24.8 11.732-24.8 11.732a7.7223 7.7305 0 0 1-11.168-10.3s10.354-16.87 16.963-37.107c3.3047-10.118 5.5858-20.983 5.3613-30.498-0.2223-9.515-2.6895-17.337-8.6392-23.28-10.399-10.387-21.948-14.896-34.99-14.88z" fill="#fff"/> <path d="m1901.5 2785.3c-0.9219-0.017-1.8293 0-2.7457 0.044-24.412 0.9724-51.688 20.089-69.33 34.372l-0.8574 0.6946-0.1278 1.0745c-0.8591 5.8907-1.7282 11.766-2.5834 17.886-9.6572 69.275-19.123 151.91-27.393 231.26-12.192 116.98-20.534 212.01-24.42 257.68h5.6002c3.8236-45.026 12.084-139.48 24.344-257.1 8.2664-79.314 17.708-161.9 27.35-231.07 0.7957-5.7011 1.6142-11.179 2.42-16.692 17.335-13.932 43.937-31.679 65.228-32.527 0.8046-0.044 1.6026-0.064 2.3766-0.044 5.5369 0.105 10.629 1.3862 15.184 4.1785 8.6593 5.3075 13.281 11.986 15.835 19.449 2.5534 7.4627 2.9485 15.776 2.6262 23.877-0.3223 8.1013-1.367 15.961-1.3565 22.727 0 6.7663 1.0642 12.946 5.9909 16.399 2.6878 1.8839 6.0364 1.9713 9.1816 1.0745 3.1457-0.8968 6.3825-2.6488 9.8117-4.9274 6.8588-4.5571 14.59-11.203 22.802-17.474 8.2136-6.2713 16.87-12.142 25.147-15.14 8.2775-2.9983 15.89-3.286 23.139 1.2698 15.17 9.5354 18.573 24.256 19.395 38.149 0.4112 6.9463 0.1278 13.606 0.2945 19.123 0.083 2.7586 0.2501 5.21 0.7813 7.4236 0.5334 2.2136 1.4542 4.339 3.3213 5.7413 1.9949 1.4996 4.6967 1.3663 6.7616 0.4885 2.0643-0.8737 3.9765-2.3635 6.0342-4.1459 4.1154-3.5648 8.7981-8.5327 14.066-13.208 5.2684-4.6758 11.079-9.0112 17.191-11.276 6.1131-2.2653 12.391-2.6017 19.406 0.6512 1.357 0.63 3.2663 2.474 5.1662 4.4715-3.7886 9.4632-7.2561 19.119-9.9306 29.087-6.5904 24.563-7.5584 63.858-6.197 110.8 1.3609 46.953 5.4257 101.03 10.18 152.3 5.9964 64.661 11.994 114.94 15.965 146.39h5.5247c-4.0193-31.975-10.046-82.738-15.998-146.92-4.7484-51.203-8.7821-105.18-10.137-151.93-1.357-46.768-0.2112-85.954 6.0341-109.19 2.774-10.339 6.351-20.429 10.376-30.313l0.6618-1.5629-1.1069-1.3132c-2.6479-3.0695-5.2929-5.4975-8.2053-6.8484-8.3536-3.8754-16.5-3.4808-23.67-0.8249-7.1699 2.6573-13.441 7.4614-18.95 12.351-5.5091 4.8895-10.3 9.9312-14.033 13.165-1.8671 1.6171-3.4991 2.7579-4.5471 3.2017-1.048 0.4428-1.018 0.3667-1.2698 0.1733-0.3834-0.2856-0.8657-1.0125-1.2375-2.5505-0.3723-1.5374-0.5779-3.7293-0.6512-6.3165-0.1445-5.1742 0.15-11.966-0.2945-19.275-0.8652-14.618-4.9245-31.775-21.989-42.501-8.8682-5.5746-18.699-5.2019-27.969-1.845-9.27 3.358-18.249 9.5605-26.623 15.954-8.3742 6.3937-16.142 13.04-22.52 17.278-3.1885 2.1189-6.0614 3.5977-8.2486 4.2219-2.1872 0.6238-3.4119 0.4507-4.4716-0.2928-2.5689-1.7999-3.5925-5.7136-3.603-11.895 0-6.1816 0.9769-14.065 1.313-22.477 0.3335-8.412 0-17.398-2.9195-25.885-2.904-8.4871-8.4614-16.441-18.168-22.39-4.6622-2.8578-9.9357-3.7634-15.26-4.2328v-0.6946z" color="#000000" fill-opacity="0" style="-inkscape-stroke:none"/> <path d="m2175.6 2723.4c13.959 39.505-56.106 134.67-85.513 187.72-23.603 42.579-3.3513 265.6 9.8767 417.24h34.85c-4.0754-32.634-10.139-84.178-15.933-146.65-4.7517-51.238-8.7793-105.26-10.137-152.12-1.3592-46.855-0.2945-86.107 6.1209-110.01 8.7431-32.593 25.067-62.604 39.354-90.7 14.286-28.096 26.35-54.262 27.969-78.089 0.9947-14.652-2.2039-22.595-6.5882-27.394z" fill="#d2d2d2"/> <path d="m1903 2499.1c-9.7232-3.3469-20.758-4.1024-31.218 0.5671-12.206 5.4473-17.185 18.711-19.341 32.987-2.1563 14.276-1.5752 30.875 0 46.915 3.1455 32.079 10.519 61.974 10.519 61.974a7.7215 7.7298 0 0 0 9.3502 5.6616 7.7215 7.7298 0 0 0 5.6554-9.3599s-7.1731-29.124-10.18-59.785c-1.5038-15.331-1.8944-31.046-0.084-43.103 1.8188-12.056 5.7792-19.143 10.331-21.174 6.298-2.8108 12.78-2.5041 19.944-0.042 7.1656 2.4661 14.682 7.2258 21.302 12.606 13.242 10.761 22.735 23.476 22.735 23.476a7.7215 7.7298 0 0 0 10.821 1.5857 7.7215 7.7298 0 0 0 1.5835-10.832s-10.375-14.012-25.412-26.231c-7.5182-6.1096-16.292-11.902-26.015-15.248z" color="#000000" fill="#1f1f2e" stroke-linecap="round" stroke-linejoin="round" style="-inkscape-stroke:none"/> <path d="m1862 2473c-0.168-0.01-0.3381 0.017-0.4704 0.084-2.67 1.5395-0.084 17.708 2.5639 31.826 2.1752-2.1475 4.7058-3.9295 7.6709-5.2527 3.5061-1.5646 7.0796-2.5135 10.644-2.9661-7.7655-10.958-17.332-23.566-20.41-23.707z" fill="#1f1f2e"/> <path d="m2074.4 2498.5c-4.6115 0.2752-21.232 12.25-32.032 20.382 6.1652 3.0758 11.994 7.2056 17.317 12.523 0.3066 0.3066 0.5943 0.6259 0.8863 0.9409 7.4761-13.276 17.111-30.99 14.833-33.554-0.189-0.2268-0.5397-0.3171-1.0081-0.2898z" fill="#1f1f2e"/> <path d="m1887.6 2511.8c-3.3033-0.042-6.4977 0.5922-9.6466 1.9973-4.5514 2.0309-8.5143 9.1145-10.335 21.171-1.8166 12.056-1.4218 27.78 0.084 43.11 1.5016 15.322 4.0475 30.252 6.2145 41.362 18.329-29.51 40.539-55.456 64.003-74.547-3.9856-4.6892-10.642-11.956-18.724-18.524-6.6206-5.3802-14.133-10.146-21.298-12.612-3.5825-1.2329-6.9914-1.9238-10.295-1.9574z" fill="#fff"/> <path d="m1901.4 2788.1c-0.8486-0.017-1.7121 0-2.5723 0.044-22.998 0.9157-50.216 19.606-67.692 33.754-0.8591 5.8933-1.7304 11.747-2.5828 17.854-9.6506 69.222-19.103 151.86-27.372 231.2-12.168 116.74-20.511 211.61-24.409 257.37h358.07c-4.017-32.009-10.01-82.67-15.943-146.65-4.7517-51.238-8.7793-105.25-10.137-152.11-1.3592-46.855-0.2945-86.118 6.1209-110.02 2.8106-10.477 6.4159-20.673 10.474-30.639-2.5128-2.9134-4.9545-5.0831-7.2389-6.1429-30.736-14.258-46.947 8.8743-55.943 2.1202-8.996-6.7539 1.2206-24.631-31.014-44.893-32.235-20.262-62.153 15.186-77.146 4.6806-14.992-10.506 0.679-29.455-36.053-51.968-5.0223-3.078-10.624-4.4739-16.562-4.5909z" fill="#ffa046"/> <path d="m2032.8 2287.7c-12.679 2e-4 -25.363 4.7878-35.056 14.37l-23.91 23.628a6.3013 6.3013 0 0 1-8.8558 0l-23.877-23.628c-9.6924-9.5819-22.397-14.359-35.078-14.359-12.68 0-25.331 4.7769-35.023 14.359l-0.901 0.901c-19.385 19.164-19.384 49.96 0 69.124l99.306 98.157 99.351-98.157c19.385-19.164 19.385-49.96 0-69.124l-0.901-0.901c-9.6923-9.5823-22.376-14.37-35.056-14.37z" color="#000000" fill="#e5384b" stroke-linecap="round" stroke-linejoin="round" stroke-width=".6" style="-inkscape-stroke:none"/> <path d="m1906.1 2275.1c-18.531 0.3654-39.95 13.278-43.891 17.966l-0.9031 0.8611c-24.227 23.952-24.227 63.092 0 87.045l103.74 102.59c2.455 2.4271 6.4055 2.4271 8.8605 0l103.78-102.59c24.227-23.952 24.227-63.093 0-87.045l-0.9031-0.8611c-24.228-23.952-63.596-23.951-87.824 0l-19.485 19.238-19.443-19.238c-12.114-11.976-28.033-17.967-43.932-17.967zm0 12.552c12.68 0 25.38 4.7751 35.072 14.357l23.874 23.628c2.4549 2.427 6.4054 2.427 8.8604 0l23.915-23.628c19.386-19.164 50.718-19.164 70.103 0l0.9031 0.9031c19.385 19.164 19.385 49.955 0 69.119l-99.35 98.161-99.309-98.161c-19.384-19.165-19.385-49.954 0-69.119l0.9031-0.9031c9.6921-9.5818 22.351-14.357 35.031-14.357z" color="#000000" fill="#1f1f2e" stroke-linecap="round" stroke-linejoin="round" style="-inkscape-stroke:none"/> <path d="m2032.8 2287.7c-12.679 2e-4 -25.363 4.7878-35.056 14.37l-23.91 23.628c-2.4543 2.4238-6.4015 2.4238-8.8558 0l-23.877-23.628c-9.6924-9.5819-22.397-14.359-35.078-14.359-12.68 0-25.331 4.7769-35.023 14.359l-0.901 0.901c-19.385 19.164-19.384 49.96 0 69.124l3.223 3.18c-18.504-19.216-18.231-49.352 0.8569-68.223l0.901-0.9009c9.6917-9.5817 22.343-14.359 35.024-14.359 12.681 0 25.385 4.7772 35.078 14.359 28.448 31.591 28.35 27.959 56.643 0 9.6922-9.5817 22.377-14.37 35.056-14.37 11.865-2e-4 23.728 4.1885 33.146 12.579-0.4285-0.46-0.817-0.943-1.2706-1.3883l-0.901-0.901c-9.6924-9.5822-22.376-14.37-35.056-14.37z" color="#000000" fill="#ef818d" stroke-linecap="round" stroke-linejoin="round" stroke-width=".6" style="-inkscape-stroke:none"/> <path d="m1906.7 2332.7a23.525 17.018 59.253 0 1-2.5989 28.919 23.525 17.018 59.253 0 1-26.653-11.518 23.525 17.018 59.253 0 1 2.5989-28.919 23.525 17.018 59.253 0 1 26.653 11.518z" fill="#ef818d" stop-color="#000000" stroke-linecap="round" stroke-linejoin="round" stroke-width=".6"/> <path d="m1927.5 2376a13.139 9.5049 59.253 0 1-1.4516 16.152 13.139 9.5049 59.253 0 1-14.886-6.433 13.139 9.5049 59.253 0 1 1.4514-16.152 13.139 9.5049 59.253 0 1 14.886 6.4328z" fill="#ef818d" stop-color="#000000" stroke-linecap="round" stroke-linejoin="round" stroke-width=".6"/> <path d="m2070.1 2304.3c24.352 30.442-44.303 127.97-143.45 123.56l42.827 42.328 99.351-98.157c18.932-18.717 19.32-48.5 1.2707-67.735z" fill="#dc1d32"/> <path d="m2108.4 2880.2c-6.8194 11.102-13.258 21.732-18.31 30.845-23.538 42.461-3.3858 265.62 9.8439 417.24h34.893c-4.017-32.009-10.01-82.67-15.943-146.65-4.7517-51.238-8.7793-105.25-10.137-152.11-1.3592-46.855-0.2945-86.118 6.1209-110.02 2.8106-10.477 6.4159-20.673 10.474-30.639-2.5128-2.9134-4.9545-5.0832-7.2389-6.1429-3.3274-1.5435-6.5599-2.312-9.7028-2.5288z" fill="#f27f37"/> <path d="m1935.9 2542.5c-5.2629 1.1443-11.871 5.0435-19.992 13.914-20.19 22.053-40.363 16.896-48.839 13.187 0.1945 2.8287 0.439 5.6705 0.7163 8.4981 1.5014 15.322 4.0515 30.252 6.2186 41.362 18.329-29.51 40.537-55.46 64.002-74.551-0.6284-0.7395-1.3492-1.5545-2.1054-2.4094z" fill="#d2d2d2"/> <path d="m2119.2 2649.2c0.2389 0.8241 0.4334 1.6815 0.5751 2.5722 5.4024 34.095-12.314 45.003-3.2669 56.513 0 0 6.0125-9.2902 8.6715-22.423 2.2372-11.05 2.1833-23.948-5.9797-36.662z" fill="#d2d2d2"/> <path d="m2048.8 2542.4s7.9162 49.726-13.685 90.885c0 0 10.354-16.87 16.963-37.107 3.3047-10.118 5.5858-20.983 5.3613-30.498-0.2223-9.515-2.6895-17.337-8.6392-23.28z" fill="#d2d2d2"/> <path transform="scale(.26458)" d="m6998.9 11431c-109.65-0.317-192.97 4.334-192.97 4.334l-56.217 165.3s871.6-57.027 681.56-123.32c-106.89-37.289-291.4-45.911-432.38-46.319zm-258.86 871c-4.8157 53.051-9.3884 103.34-13.188 146.57 236.45-22.654 520.72-59.878 403.9-100.63-96.657-33.718-256.71-43.979-390.72-45.94z" fill="#f47e1c"/> <path d="m1842.4 2813.3c-4.0593 2.948-7.8579 5.8935-11.276 8.6609-0.8591 5.8932-1.7304 11.747-2.5828 17.854-9.6506 69.222-19.103 151.86-27.372 231.2-12.168 116.74-20.511 211.61-24.409 257.37h9.6705c8.3098-121.58 27.562-368.21 55.97-515.08z" fill="#fbcebf"/> <path d="m1886.3 2874.7a18.576 45.667 10.971 0 1-26.928 41.297 18.576 45.667 10.971 0 1-9.5462-48.367 18.576 45.667 10.971 0 1 26.928-41.297 18.576 45.667 10.971 0 1 9.5461 48.367z" fill="#fbcebf" stop-color="#000000" stroke-linecap="round" stroke-linejoin="round" stroke-width=".6"/> <path d="m1862.2 2938.1a9.1284 13.534 34.942 0 1-3.892 17.25 9.1284 13.534 34.942 0 1-14.732 1.8078 9.1284 13.534 34.942 0 1 3.892-17.25 9.1284 13.534 34.942 0 1 14.732-1.8078z" fill="#fbcebf" stop-color="#000000" stroke-linecap="round" stroke-linejoin="round" stroke-width=".6"/> <path transform="scale(.26458)" d="m7451.6 11099c-32.796-0.34-55.045 3.68-60.953 13.885-26.856 46.388 369.74 111.85 578.79 303.68-1.8454-82.273-1.5339-157.87 2.2695-223.18-105.43-25.774-392.29-93.064-520.11-94.391zm-30.59 1076.8c-52.844-0.38-85.666 2.412-83.488 10.54 30.815 115 542.57 195.31 695.31 195.31 4.1508 0 8.2688-0.08 12.375-0.201-6.0696-53.57-12.361-110.72-18.965-174.86-120.22-1.019-449.52-29.666-605.23-30.788z" fill="#f47e1c"/> <ellipse transform="rotate(-4.3021)" cx="1708.2" cy="3275.9" rx="73.174" ry="16.123" fill="#f47e1c" stop-color="#000000"/> <path d="m2013.9 2512.1c-3.8532-0.044-7.7396 0.2295-11.634 0.8032-20.772 3.0621-41.91 14.051-62.167 30.118-40.513 32.132-77.746 84.962-97.646 141.43-9.8134 27.848-19.503 83.659-29.195 153.18-9.6923 69.524-19.125 152.24-27.404 231.67-11.634 111.62-20.21 208.01-24.605 259.02h15.52c4.446-51.68 12.959-147.31 24.431-257.38 8.2685-79.334 17.721-161.96 27.372-231.18 9.65-69.222 19.756-125.59 28.424-150.19 18.88-53.574 55.069-104.59 92.686-134.43 18.809-14.919 37.93-24.465 54.852-26.959 16.921-2.4949 31.462 1.3694 44.259 14.153 5.9497 5.9428 8.4147 13.776 8.6392 23.291 0.2223 9.5151-2.0583 20.379-5.3613 30.498-6.6093 20.236-16.963 37.096-16.963 37.096a7.7223 7.7305 0 0 0 11.168 10.311s10.788-7.8218 24.8-11.732c14.012-3.9108 29.405-4.2882 42.642 10.256 13.595 14.937 14.12 30.693 11.461 43.825-2.659 13.132-8.6715 22.412-8.6715 22.412a7.7223 7.7305 0 0 0 9.0516 11.515s16.858-5.6849 31.778-4.2544c7.4601 0.714 13.898 2.9944 18.288 7.7926 4.3888 4.798 7.594 12.752 6.5988 27.415-1.6154 23.827-13.683 49.982-27.969 78.078-14.287 28.096-30.611 58.108-39.354 90.7-6.4121 23.901-7.4779 63.164-6.1209 110.02 1.3586 46.856 5.3851 100.87 10.137 152.11 5.4218 58.464 11.525 110.77 15.954 146.66h15.552c-4.4388-35.936-10.638-89.013-16.117-148.09-4.7339-51.042-8.7309-104.81-10.072-151.12-1.3442-46.314 0.2278-85.577 5.5785-105.57 8.1024-30.201 23.778-59.367 38.193-87.716 14.414-28.349 27.731-55.902 29.64-84.015 1.1841-17.44-2.864-30.436-10.626-38.92-7.7607-8.4839-18.378-11.81-28.207-12.752-12.336-1.1845-16.901 1.3211-24.127 3.2125 2.3666-4.9534 3.9398-6.0102 5.6435-14.424 3.2902-16.249 2.0705-38.338-15.184-57.294-17.61-19.348-41.071-19.503-58.217-14.717-5.5112 1.5373-5.274 2.5055-9.5833 4.5257 3.7403-7.339 5.6919-9.1838 9.3988-20.534 3.6487-11.172 6.4199-23.491 6.132-35.664-0.2834-12.173-3.8637-24.54-13.186-33.851-13.04-13.024-29.09-19.113-45.79-19.297z" color="#000000" fill="#1f1f2e" stroke-linecap="round" stroke-linejoin="round" stroke-width=".99999" style="-inkscape-stroke:none"/> <path transform="scale(.26458)" d="m7865 11168c-3.9331 48.458-5.8774 104.64-6.25 166.54 39.942 24.405 77.627 51.522 110.63 81.803-9e-4 -0.04 0-0.08 0-0.114-1.8422-82.216-1.5304-157.77 2.2695-223.03 6e-4 -0.01 0-0.02 0-0.03-26.082-6.376-63.511-15.339-106.65-25.17zm39.486 1033.4c4.7867 58.489 9.6064 115.79 14.465 172.32 46.341 5.016 86.104 7.736 113.82 7.736 4.1298 0 8.2269-0.08 12.312-0.199-6.0183-53.161-12.36-111.32-18.9-174.85-5e-4 0 0 0 0-0.01-29.688-0.252-72.27-2.206-121.7-4.997z" fill="#ef660c"/> <path transform="scale(.26458)" d="m6851 11433c-13.141 0.493-18.518 0.72-24.92 1.029-5.8739 54.102-11.654 108.16-17.266 161.87 7.3151-0.539 16.829-1.295 25.32-1.941 5.4108-53.66 11.039-107.32 16.865-160.96zm-110.97 868.53c-4.8157 53.051-9.3884 103.34-13.188 146.57 11.373-1.089 23.1-2.367 34.644-3.523 3.2424-44.965 6.7408-92.291 10.551-142.32-10.726-0.261-21.556-0.568-32.008-0.721z" fill="#f69442"/> </g> </svg>