<?xml version='1.0' encoding='utf-8'?>
<svg xmlns:xlink="http://www.w3.org/1999/xlink" xmlns="http://www.w3.org/2000/svg" enable-background="new 0 0 64 64" version="1.1" viewBox="0 0 316 316"> <defs> <pattern id="a" xlink:href="#b" patternTransform="matrix(.0070711 .0070711 -.0070711 .0070711 0 0)" preserveAspectRatio="xMidYMid"/> <pattern id="b" width="83" height="84" fill="#000000" patternTransform="matrix(.35355 .35355 -.35355 .35355 0 0)" patternUnits="userSpaceOnUse" preserveAspectRatio="xMidYMid"> <path d="m29.441 0c-0.48543 1.5909-0.80273 3.4057-0.80273 5.4668 0 5.423 2.2986 9.285 3.9395 11.561 1.6409-2.2755 3.9395-6.1375 3.9395-11.561 0-2.0611-0.31536-3.8759-0.80078-5.4668zm42 0c-0.48543 1.5909-0.80273 3.4057-0.80273 5.4668 0 5.423 2.2986 9.285 3.9395 11.561 1.6409-2.2755 3.9395-6.1375 3.9395-11.561 0-2.0611-0.31536-3.8759-0.80078-5.4668zm-59.863 1.5273c-5.423 0-9.2831 2.2986-11.559 3.9395 2.2755 1.6409 6.1356 3.9395 11.559 3.9395 5.4513 0 9.1978-2.2015 11.561-3.9395-2.3627-1.7379-6.1093-3.9395-11.561-3.9395zm42 0c-5.423 0-9.2831 2.2986-11.559 3.9395 2.2755 1.6409 6.1356 3.9395 11.559 3.9395 5.4513 0 9.1978-2.2015 11.561-3.9395-2.3627-1.7379-6.1093-3.9395-11.561-3.9395zm-42 13.379c-1.7379 2.3627-3.9395 6.1092-3.9395 11.561 0 5.423 2.2986 9.285 3.9395 11.561 1.6409-2.2755 3.9395-6.1375 3.9395-11.561 0-5.4513-2.2015-9.1978-3.9395-11.561zm42 0c-1.7379 2.3627-3.9395 6.1092-3.9395 11.561 0 5.423 2.2986 9.285 3.9395 11.561 1.6409-2.2755 3.9395-6.1375 3.9395-11.561 0-5.4513-2.2015-9.1978-3.9395-11.561zm-21 7.6211c-5.423 0-9.2831 2.2986-11.559 3.9395 2.2755 1.6409 6.1356 3.9394 11.559 3.9394 5.4513 0 9.1978-2.2015 11.561-3.9394-2.3627-1.7379-6.1093-3.9395-11.561-3.9395zm41 0c-5.423 0-9.2831 2.2986-11.559 3.9395 2.2755 1.6409 6.1356 3.9394 11.559 3.9394 4.0319 0 7.1255-1.2048 9.4219-2.5352v-2.8086c-2.2964-1.3304-5.39-2.5352-9.4219-2.5352zm-73.578 2.5352v2.8086c0.80841-0.46835 1.5235-0.95178 2.1387-1.4043-0.61519-0.45252-1.3303-0.93595-2.1387-1.4043zm32.578 10.844c-1.7379 2.3627-3.9395 6.1092-3.9395 11.561 0 5.423 2.2986 9.285 3.9395 11.561 1.6409-2.2755 3.9395-6.1375 3.9395-11.561 0-5.4513-2.2015-9.1978-3.9395-11.561zm42 0c-1.7379 2.3627-3.9395 6.1092-3.9395 11.561 0 5.423 2.2986 9.285 3.9395 11.561 1.6409-2.2755 3.9395-6.1375 3.9395-11.561 0-5.4513-2.2015-9.1978-3.9395-11.561zm-63 7.6211c-5.423 0-9.2831 2.2986-11.559 3.9395 2.2755 1.6409 6.1356 3.9394 11.559 3.9394 5.4513 0 9.1978-2.2015 11.561-3.9394-2.3627-1.7379-6.1093-3.9395-11.561-3.9395zm42 0c-5.423 0-9.2831 2.2986-11.559 3.9395 2.2755 1.6409 6.1356 3.9394 11.559 3.9394 5.4513 0 9.1978-2.2015 11.561-3.9394-2.3627-1.7379-6.1093-3.9395-11.561-3.9395zm-42 13.379c-1.7379 2.3627-3.9395 6.1092-3.9395 11.561 0 5.423 2.2986 9.285 3.9395 11.561 1.6409-2.2755 3.9395-6.1375 3.9395-11.561 0-5.4513-2.2015-9.1978-3.9395-11.561zm42 0c-1.7379 2.3627-3.9395 6.1092-3.9395 11.561 0 5.423 2.2986 9.285 3.9395 11.561 1.6409-2.2755 3.9395-6.1375 3.9395-11.561 0-5.4513-2.2015-9.1978-3.9395-11.561zm-21 7.6211c-5.423 0-9.2831 2.2986-11.559 3.9395 2.2755 1.6409 6.1356 3.9394 11.559 3.9394 5.4513 0 9.1978-2.2015 11.561-3.9394-2.3627-1.7379-6.1093-3.9395-11.561-3.9395zm41 0c-5.423 0-9.2831 2.2986-11.559 3.9395 2.2755 1.6409 6.1356 3.9394 11.559 3.9394 4.0319 0 7.1255-1.2048 9.4219-2.5352v-2.8086c-2.2964-1.3304-5.39-2.5352-9.4219-2.5352zm-73.578 2.5352v2.8086c0.80841-0.46835 1.5235-0.95178 2.1387-1.4043-0.61519-0.45252-1.3303-0.93595-2.1387-1.4043zm32.578 10.844c-1.0808 1.4694-2.3383 3.477-3.1367 6.0938h6.2754c-0.79846-2.6168-2.0578-4.6244-3.1387-6.0938zm42 0c-1.0808 1.4694-2.3383 3.477-3.1367 6.0938h6.2754c-0.79846-2.6168-2.0578-4.6244-3.1387-6.0938z"/> </pattern> </defs> <g transform="translate(-112.06 -132)"> <rect transform="translate(.082035 40)" x="111.98" y="92" width="316" height="316" fill="#F3B937" style="paint-order:stroke fill markers"/> <g transform="translate(.034113 -14)"> <g transform="matrix(2 0 0 2 88.063 204)"> <path d="m115.99 94-91.995-46 42.491-20.75 91.48 45.75z" fill="#353536" opacity=".2"/> <path d="m115.99 86-91.995-46v-6l41.991-21 91.98 46v6z" fill="#4d647c"/> <path d="m115.98 80 0.03491 5.9999-92.015-46v-6" opacity=".11"/> <path d="m115.98 80 0.03491 5.9999 41.956-21v-6" opacity=".29"/> </g> <g transform="matrix(.50021 0 0 .50021 212.03 262)"> <path d="m0 4 8.0014-4 15.999 8.0022-0.0054 3.9978-7.995 3.9983-15.99-7.9967z" fill="#fff"/> <path d="m0 4 16 8-7e-6 3.9983-15.99-7.9967z" opacity=".11"/> <path d="m24 8-5e-3 4-7.995 3.9983-3.4e-5 -3.9983z" opacity=".29"/> <path transform="matrix(1.9992 0 0 1.9992 -751.68 -555.77)" d="m378 280 1.9996-1 5.9987 3-1.9996 1z" opacity=".6"/> </g> <g transform="matrix(.50021 0 0 .50021 220.03 258)"> <path d="m0 4 8.0014-4 15.999 8.0022-0.0054 3.9978-7.995 3.9983-15.99-7.9967z" fill="#fff"/> <path d="m0 4 16 8-7e-6 3.9983-15.99-7.9967z" opacity=".11"/> <path d="m24 8-5e-3 4-7.995 3.9983-3.4e-5 -3.9983z" opacity=".29"/> <path transform="matrix(1.9992 0 0 1.9992 -751.68 -555.77)" d="m378 280 1.9996-1 5.9987 3-1.9996 1z" opacity=".6"/> </g> <g transform="matrix(.50021 0 0 .50021 232.03 252)"> <path d="m0 4 8.0014-4 15.999 8.0022-0.0054 3.9978-7.995 3.9983-15.99-7.9967z" fill="#fff"/> <path d="m0 4 16 8-7e-6 3.9983-15.99-7.9967z" opacity=".11"/> <path d="m24 8-5e-3 4-7.995 3.9983-3.4e-5 -3.9983z" opacity=".29"/> <path transform="matrix(1.9992 0 0 1.9992 -751.68 -555.77)" d="m378 280 1.9996-1 5.9987 3-1.9996 1z" opacity=".6"/> </g> <g transform="matrix(.50021 0 0 .50021 240.03 248)"> <path d="m0 4 8.0014-4 15.999 8.0022-0.0054 3.9978-7.995 3.9983-15.99-7.9967z" fill="#fff"/> <path d="m0 4 16 8-7e-6 3.9983-15.99-7.9967z" opacity=".11"/> <path d="m24 8-5e-3 4-7.995 3.9983-3.4e-5 -3.9983z" opacity=".29"/> <path transform="matrix(1.9992 0 0 1.9992 -751.68 -555.77)" d="m378 280 1.9996-1 5.9987 3-1.9996 1z" opacity=".6"/> </g> <g transform="matrix(.50021 0 0 .50021 348 330)"> <path d="m0 4 8.0014-4 15.999 8.0022-0.0054 3.9978-7.995 3.9983-15.99-7.9967z" fill="#fff"/> <path d="m0 4 16 8-7e-6 3.9983-15.99-7.9967z" opacity=".11"/> <path d="m24 8-5e-3 4-7.995 3.9983-3.4e-5 -3.9983z" opacity=".29"/> <path transform="matrix(1.9992 0 0 1.9992 -751.68 -555.77)" d="m378 280 1.9996-1 5.9987 3-1.9996 1z" opacity=".6"/> </g> <g transform="matrix(.50021 0 0 .50021 336 324)"> <path d="m0 4 8.0014-4 15.999 8.0022-0.0054 3.9978-7.995 3.9983-15.99-7.9967z" fill="#fff"/> <path d="m0 4 16 8-7e-6 3.9983-15.99-7.9967z" opacity=".11"/> <path d="m24 8-5e-3 4-7.995 3.9983-3.4e-5 -3.9983z" opacity=".29"/> <path transform="matrix(1.9992 0 0 1.9992 -751.68 -555.77)" d="m378 280 1.9996-1 5.9987 3-1.9996 1z" opacity=".6"/> </g> <g transform="translate(227.91 301.98)"> <path d="m84 58 32-16-84-42-32 16v4l84 42z" fill="#fff"/> <g transform="translate(-4)"> <path d="m92 48-8-4v-4l20-10 8 4v4" fill="#353536"/> <path d="M 84,40 92.088949,44.04362 92,48 84,44 Z" opacity=".11" stop-color="#000000" style="-inkscape-stroke:none;font-variation-settings:normal"/> <path d="m112 34-0.17617 4-19.824 10v-4" opacity=".29" stop-color="#000000" style="-inkscape-stroke:none;font-variation-settings:normal"/> </g> <path d="m84 58v4l-84-42v-4" opacity=".11"/> <g transform="translate(-16,-6)"> <path d="m92 48-8-4v-4l20-10 8 4v4" fill="#353536"/> <path d="M 84,40 92.088949,44.04362 92,48 84,44 Z" opacity=".11" stop-color="#000000" style="-inkscape-stroke:none;font-variation-settings:normal"/> <path d="m112 34-0.17617 4-19.824 10v-4" opacity=".29" stop-color="#000000" style="-inkscape-stroke:none;font-variation-settings:normal"/> <path d="m56 30-8-4v-4l20-10 8 4v4" fill="#353536"/> <path d="M 48,22 56.088949,26.04362 56,30 48,26 Z" opacity=".11" stop-color="#000000" style="-inkscape-stroke:none;font-variation-settings:normal"/> <path d="m76 16-0.17617 4-19.824 10v-4" opacity=".29" stop-color="#000000" style="-inkscape-stroke:none;font-variation-settings:normal"/> </g> <g transform="translate(-28,-12)"> <path d="m92 48-8-4v-4l20-10 8 4v4" fill="#353536"/> <path d="M 84,40 92.088949,44.04362 92,48 84,44 Z" opacity=".11" stop-color="#000000" style="-inkscape-stroke:none;font-variation-settings:normal"/> <path d="m112 34-0.17617 4-19.824 10v-4" opacity=".29" stop-color="#000000" style="-inkscape-stroke:none;font-variation-settings:normal"/> </g> <g transform="translate(-64,-30)"> <path d="m92 48-8-4v-4l20-10 8 4v4" fill="#353536"/> <path d="M 84,40 92.088949,44.04362 92,48 84,44 Z" opacity=".11" stop-color="#000000" style="-inkscape-stroke:none;font-variation-settings:normal"/> <path d="m112 34-0.17617 4-19.824 10v-4" opacity=".29" stop-color="#000000" style="-inkscape-stroke:none;font-variation-settings:normal"/> </g> <path d="m20 10 8 4 20-10-8-4-20 10" fill="#fff" opacity=".1"/> <path d="m32 16 8 4 20-10-8-4-20 10" fill="#fff" opacity=".1"/> <path d="m56 28 8 4 20-10-8-4-20 10" fill="#fff" opacity=".1"/> <path d="m68 34 8 4 20-10-8-4-20 10" fill="#fff" opacity=".1"/> <path d="m80 40 8 4 20-10-8-4-20 10" fill="#fff" opacity=".1"/> </g> <g transform="matrix(.50021 0 0 .50021 348 318)"> <path d="m0 4 8.0014-4 15.999 8.0022-0.0054 3.9978-7.995 3.9983-15.99-7.9967z" fill="#fff"/> <path d="m0 4 16 8-7e-6 3.9983-15.99-7.9967z" opacity=".11"/> <path d="m24 8-5e-3 4-7.995 3.9983-3.4e-5 -3.9983z" opacity=".29"/> <path transform="matrix(1.9992 0 0 1.9992 -751.68 -555.77)" d="m378 280 1.9996-1 5.9987 3-1.9996 1z" opacity=".6"/> </g> <g transform="matrix(.50021 0 0 .50021 360 324)"> <path d="m0 4 8.0014-4 15.999 8.0022-0.0054 3.9978-7.995 3.9983-15.99-7.9967z" fill="#fff"/> <path d="m0 4 16 8-7e-6 3.9983-15.99-7.9967z" opacity=".11"/> <path d="m24 8-5e-3 4-7.995 3.9983-3.4e-5 -3.9983z" opacity=".29"/> <path transform="matrix(1.9992 0 0 1.9992 -751.68 -555.77)" d="m378 280 1.9996-1 5.9987 3-1.9996 1z" opacity=".6"/> </g> <g transform="translate(143.99 260)"> <path d="m84 58 32-16-84-42-32 16v4l84 42z" fill="#fff"/> <g transform="translate(-4)"> <path d="m92 48-8-4v-4l20-10 8 4v4" fill="#353536"/> <path d="M 84,40 92.088949,44.04362 92,48 84,44 Z" opacity=".11" stop-color="#000000" style="-inkscape-stroke:none;font-variation-settings:normal"/> <path d="m112 34-0.17617 4-19.824 10v-4" opacity=".29" stop-color="#000000" style="-inkscape-stroke:none;font-variation-settings:normal"/> </g> <path d="m84 58v4l-84-42v-4" opacity=".11"/> <g transform="translate(-16,-6)"> <path d="m92 48-8-4v-4l20-10 8 4v4" fill="#353536"/> <path d="M 84,40 92.088949,44.04362 92,48 84,44 Z" opacity=".11" stop-color="#000000" style="-inkscape-stroke:none;font-variation-settings:normal"/> <path d="m112 34-0.17617 4-19.824 10v-4" opacity=".29" stop-color="#000000" style="-inkscape-stroke:none;font-variation-settings:normal"/> <path d="m56 30-8-4v-4l20-10 8 4v4" fill="#353536"/> <path d="M 48,22 56.088949,26.04362 56,30 48,26 Z" opacity=".11" stop-color="#000000" style="-inkscape-stroke:none;font-variation-settings:normal"/> <path d="m76 16-0.17617 4-19.824 10v-4" opacity=".29" stop-color="#000000" style="-inkscape-stroke:none;font-variation-settings:normal"/> </g> <g transform="translate(-28,-12)"> <path d="m92 48-8-4v-4l20-10 8 4v4" fill="#353536"/> <path d="M 84,40 92.088949,44.04362 92,48 84,44 Z" opacity=".11" stop-color="#000000" style="-inkscape-stroke:none;font-variation-settings:normal"/> <path d="m112 34-0.17617 4-19.824 10v-4" opacity=".29" stop-color="#000000" style="-inkscape-stroke:none;font-variation-settings:normal"/> </g> <g transform="translate(-64,-30)"> <path d="m92 48-8-4v-4l20-10 8 4v4" fill="#353536"/> <path d="M 84,40 92.088949,44.04362 92,48 84,44 Z" opacity=".11" stop-color="#000000" style="-inkscape-stroke:none;font-variation-settings:normal"/> <path d="m112 34-0.17617 4-19.824 10v-4" opacity=".29" stop-color="#000000" style="-inkscape-stroke:none;font-variation-settings:normal"/> </g> <path d="m20 10 8 4 20-10-8-4-20 10" fill="#fff" opacity=".1"/> <path d="m32 16 8 4 20-10-8-4-20 10" fill="#fff" opacity=".1"/> <path d="m56 28 8 4 20-10-8-4-20 10" fill="#fff" opacity=".1"/> <path d="m68 34 8 4 20-10-8-4-20 10" fill="#fff" opacity=".1"/> <path d="m80 40 8 4 20-10-8-4-20 10" fill="#fff" opacity=".1"/> </g> <g transform="matrix(1.2 0 0 1.2 383.63 289.58)"> <path d="m-123-19.652 9.9978 5 9.9978-5-1.5e-4 -1.6667-9.9978-5-9.9978 5z" fill="#3d94d2"/> <path d="m-120.5-21.319 7.4984-3.75 7.4984 3.75-7.4984 3.75z" fill="url(#a)" stop-color="#000000" stroke="#000" stroke-width=".041667" style="-inkscape-stroke:none;font-variation-settings:normal"/> <path d="m-113-14.652v-1.6667l9.9978-5 5e-5 1.6667z" opacity=".29"/> <path d="m-113-14.652 8e-5 -1.6667-9.9978-5-1.2e-4 1.6667z" opacity=".11"/> </g> <g transform="matrix(1.2 0 0 1.2 371.63 295.58)"> <path d="m-123-19.652 9.9978 5 9.9978-5-1.5e-4 -1.6667-9.9978-5-9.9978 5z" fill="#3d94d2"/> <path d="m-120.5-21.319 7.4984-3.75 7.4984 3.75-7.4984 3.75z" fill="url(#a)" stop-color="#000000" stroke="#000" stroke-width=".041667" style="-inkscape-stroke:none;font-variation-settings:normal"/> <path d="m-113-14.652v-1.6667l9.9978-5 5e-5 1.6667z" opacity=".29"/> <path d="m-113-14.652 8e-5 -1.6667-9.9978-5-1.2e-4 1.6667z" opacity=".11"/> </g> <g transform="matrix(1.2 0 0 1.2 395.63 295.58)"> <path d="m-123-19.652 9.9978 5 9.9978-5-1.5e-4 -1.6667-9.9978-5-9.9978 5z" fill="#be4d2b"/> <path d="m-120.5-21.319 7.4984-3.75 7.4984 3.75-7.4984 3.75z" fill="url(#a)" stop-color="#000000" stroke="#000" stroke-width=".041667" style="-inkscape-stroke:none;font-variation-settings:normal"/> <path d="m-113-14.652v-1.6667l9.9978-5 5e-5 1.6667z" opacity=".29"/> <path d="m-113-14.652 8e-5 -1.6667-9.9978-5-1.2e-4 1.6667z" opacity=".11"/> </g> <g transform="matrix(1.2 0 0 1.2 383.63 301.58)"> <path d="m-123-19.652 9.9978 5 9.9978-5-1.5e-4 -1.6667-9.9978-5-9.9978 5z" fill="#be4d2b"/> <path d="m-120.5-21.319 7.4984-3.75 7.4984 3.75-7.4984 3.75z" fill="url(#a)" stop-color="#000000" stroke="#000" stroke-width=".041667" style="-inkscape-stroke:none;font-variation-settings:normal"/> <path d="m-113-14.652v-1.6667l9.9978-5 5e-5 1.6667z" opacity=".29"/> <path d="m-113-14.652 8e-5 -1.6667-9.9978-5-1.2e-4 1.6667z" opacity=".11"/> </g> <g transform="matrix(1.2 0 0 1.2 407.63 301.58)"> <path d="m-123-19.652 9.9978 5 9.9978-5-1.5e-4 -1.6667-9.9978-5-9.9978 5z" fill="#95bc27"/> <path d="m-120.5-21.319 7.4984-3.75 7.4984 3.75-7.4984 3.75z" fill="url(#a)" stop-color="#000000" stroke="#000" stroke-width=".041667" style="-inkscape-stroke:none;font-variation-settings:normal"/> <path d="m-113-14.652v-1.6667l9.9978-5 5e-5 1.6667z" opacity=".29"/> <path d="m-113-14.652 8e-5 -1.6667-9.9978-5-1.2e-4 1.6667z" opacity=".11"/> </g> <g transform="matrix(1.2 0 0 1.2 395.63 307.58)"> <path d="m-123-19.652 9.9978 5 9.9978-5-1.5e-4 -1.6667-9.9978-5-9.9978 5z" fill="#f3b937"/> <path d="m-120.5-21.319 7.4984-3.75 7.4984 3.75-7.4984 3.75z" fill="url(#a)" stop-color="#000000" stroke="#000" stroke-width=".041667" style="-inkscape-stroke:none;font-variation-settings:normal"/> <path d="m-113-14.652v-1.6667l9.9978-5 5e-5 1.6667z" opacity=".29"/> <path d="m-113-14.652 8e-5 -1.6667-9.9978-5-1.2e-4 1.6667z" opacity=".11"/> </g> <g transform="matrix(1.2 0 0 1.2 419.62 307.58)"> <path d="m-123-19.652 9.9978 5 9.9978-5-1.5e-4 -1.6667-9.9978-5-9.9978 5z" fill="#95bc27"/> <path d="m-120.5-21.319 7.4984-3.75 7.4984 3.75-7.4984 3.75z" fill="url(#a)" stop-color="#000000" stroke="#000" stroke-width=".041667" style="-inkscape-stroke:none;font-variation-settings:normal"/> <path d="m-113-14.652v-1.6667l9.9978-5 5e-5 1.6667z" opacity=".29"/> <path d="m-113-14.652 8e-5 -1.6667-9.9978-5-1.2e-4 1.6667z" opacity=".11"/> </g> <g transform="matrix(1.2 0 0 1.2 407.63 313.58)"> <path d="m-123-19.652 9.9978 5 9.9978-5-1.5e-4 -1.6667-9.9978-5-9.9978 5z" fill="#f3b937"/> <path d="m-120.5-21.319 7.4984-3.75 7.4984 3.75-7.4984 3.75z" fill="url(#a)" stop-color="#000000" stroke="#000" stroke-width=".041667" style="-inkscape-stroke:none;font-variation-settings:normal"/> <path d="m-113-14.652v-1.6667l9.9978-5 5e-5 1.6667z" opacity=".29"/> <path d="m-113-14.652 8e-5 -1.6667-9.9978-5-1.2e-4 1.6667z" opacity=".11"/> </g> <g transform="matrix(1.2 0 0 1.2 431.62 313.58)"> <path d="m-123-19.652 9.9978 5 9.9978-5-1.5e-4 -1.6667-9.9978-5-9.9978 5z" fill="#f3b937"/> <path d="m-120.5-21.319 7.4984-3.75 7.4984 3.75-7.4984 3.75z" fill="url(#a)" stop-color="#000000" stroke="#000" stroke-width=".041667" style="-inkscape-stroke:none;font-variation-settings:normal"/> <path d="m-113-14.652v-1.6667l9.9978-5 5e-5 1.6667z" opacity=".29"/> <path d="m-113-14.652 8e-5 -1.6667-9.9978-5-1.2e-4 1.6667z" opacity=".11"/> </g> <g transform="matrix(1.2 0 0 1.2 419.62 319.58)"> <path d="m-123-19.652 9.9978 5 9.9978-5-1.5e-4 -1.6667-9.9978-5-9.9978 5z" fill="#f3b937"/> <path d="m-120.5-21.319 7.4984-3.75 7.4984 3.75-7.4984 3.75z" fill="url(#a)" stop-color="#000000" stroke="#000" stroke-width=".041667" style="-inkscape-stroke:none;font-variation-settings:normal"/> <path d="m-113-14.652v-1.6667l9.9978-5 5e-5 1.6667z" opacity=".29"/> <path d="m-113-14.652 8e-5 -1.6667-9.9978-5-1.2e-4 1.6667z" opacity=".11"/> </g> <g transform="matrix(1.2 0 0 1.2 443.62 319.58)"> <path d="m-123-19.652 9.9978 5 9.9978-5-1.5e-4 -1.6667-9.9978-5-9.9978 5z" fill="#f3b937"/> <path d="m-120.5-21.319 7.4984-3.75 7.4984 3.75-7.4984 3.75z" fill="url(#a)" stop-color="#000000" stroke="#000" stroke-width=".041667" style="-inkscape-stroke:none;font-variation-settings:normal"/> <path d="m-113-14.652v-1.6667l9.9978-5 5e-5 1.6667z" opacity=".29"/> <path d="m-113-14.652 8e-5 -1.6667-9.9978-5-1.2e-4 1.6667z" opacity=".11"/> </g> <g transform="matrix(1.2 0 0 1.2 431.62 325.58)"> <path d="m-123-19.652 9.9978 5 9.9978-5-1.5e-4 -1.6667-9.9978-5-9.9978 5z" fill="#f3b937"/> <path d="m-120.5-21.319 7.4984-3.75 7.4984 3.75-7.4984 3.75z" fill="url(#a)" stop-color="#000000" stroke="#000" stroke-width=".041667" style="-inkscape-stroke:none;font-variation-settings:normal"/> <path d="m-113-14.652v-1.6667l9.9978-5 5e-5 1.6667z" opacity=".29"/> <path d="m-113-14.652 8e-5 -1.6667-9.9978-5-1.2e-4 1.6667z" opacity=".11"/> </g> <g transform="matrix(1.2 0 0 1.2 455.62 325.58)"> <path d="m-123-19.652 9.9978 5 9.9978-5-1.5e-4 -1.6667-9.9978-5-9.9978 5z" fill="#3d94d2"/> <path d="m-120.5-21.319 7.4984-3.75 7.4984 3.75-7.4984 3.75z" fill="url(#a)" stop-color="#000000" stroke="#000" stroke-width=".041667" style="-inkscape-stroke:none;font-variation-settings:normal"/> <path d="m-113-14.652v-1.6667l9.9978-5 5e-5 1.6667z" opacity=".29"/> <path d="m-113-14.652 8e-5 -1.6667-9.9978-5-1.2e-4 1.6667z" opacity=".11"/> </g> <g transform="matrix(1.2 0 0 1.2 443.62 331.58)"> <path d="m-123-19.652 9.9978 5 9.9978-5-1.5e-4 -1.6667-9.9978-5-9.9978 5z" fill="#3d94d2"/> <path d="m-120.5-21.319 7.4984-3.75 7.4984 3.75-7.4984 3.75z" fill="url(#a)" stop-color="#000000" stroke="#000" stroke-width=".041667" style="-inkscape-stroke:none;font-variation-settings:normal"/> <path d="m-113-14.652v-1.6667l9.9978-5 5e-5 1.6667z" opacity=".29"/> <path d="m-113-14.652 8e-5 -1.6667-9.9978-5-1.2e-4 1.6667z" opacity=".11"/> </g> <g transform="matrix(1.2 0 0 1.2 467.61 331.58)"> <path d="m-123-19.652 9.9978 5 9.9978-5-1.5e-4 -1.6667-9.9978-5-9.9978 5z" fill="#f3b937"/> <path d="m-120.5-21.319 7.4984-3.75 7.4984 3.75-7.4984 3.75z" fill="url(#a)" stop-color="#000000" stroke="#000" stroke-width=".041667" style="-inkscape-stroke:none;font-variation-settings:normal"/> <path d="m-113-14.652v-1.6667l9.9978-5 5e-5 1.6667z" opacity=".29"/> <path d="m-113-14.652 8e-5 -1.6667-9.9978-5-1.2e-4 1.6667z" opacity=".11"/> </g> <g transform="matrix(1.2 0 0 1.2 479.61 337.58)"> <path d="m-123-19.652 9.9978 5 9.9978-5-1.5e-4 -1.6667-9.9978-5-9.9978 5z" fill="#fff"/> <path d="m-120.5-21.319 7.4984-3.75 7.4984 3.75-7.4984 3.75z" opacity=".6"/> <path d="m-113-14.652v-1.6667l9.9978-5 5e-5 1.6667z" opacity=".29"/> <path d="m-113-14.652 8e-5 -1.6667-9.9978-5-1.2e-4 1.6667z" opacity=".11"/> </g> <g transform="matrix(1.2 0 0 1.2 455.62 337.58)"> <path d="m-123-19.652 9.9978 5 9.9978-5-1.5e-4 -1.6667-9.9978-5-9.9978 5z" fill="#f3b937"/> <path d="m-120.5-21.319 7.4984-3.75 7.4984 3.75-7.4984 3.75z" fill="url(#a)" stop-color="#000000" stroke="#000" stroke-width=".041667" style="-inkscape-stroke:none;font-variation-settings:normal"/> <path d="m-113-14.652v-1.6667l9.9978-5 5e-5 1.6667z" opacity=".29"/> <path d="m-113-14.652 8e-5 -1.6667-9.9978-5-1.2e-4 1.6667z" opacity=".11"/> </g> <g transform="matrix(1.2 0 0 1.2 467.61 343.58)"> <path d="m-123-19.652 9.9978 5 9.9978-5-1.5e-4 -1.6667-9.9978-5-9.9978 5z" fill="#fff"/> <path d="m-120.5-21.319 7.4984-3.75 7.4984 3.75-7.4984 3.75z" opacity=".6"/> <path d="m-113-14.652v-1.6667l9.9978-5 5e-5 1.6667z" opacity=".29"/> <path d="m-113-14.652 8e-5 -1.6667-9.9978-5-1.2e-4 1.6667z" opacity=".11"/> </g> <path d="m188.04 254 31.993-16-0.99979 1.5-28.994 14.5h-1.9996" opacity=".29"/> <path d="m228.03 242-7.9983-4-0.99979 1.5 6.9985 3.5z" opacity=".11"/> <path d="m188.04 254h1.9996l6.9985 3.5-0.99978 0.5z" fill="#fff" opacity=".1"/> <g transform="translate(11.997 6)"> <path d="m188.04 254 31.993-16-0.99979 1.5-28.994 14.5h-1.9996" opacity=".29"/> <path d="m228.03 242-7.9983-4-0.99979 1.5 6.9985 3.5z" opacity=".11"/> <path d="m188.04 254h1.9996l6.9985 3.5-0.99978 0.5z" fill="#fff" opacity=".1"/> </g> <g transform="translate(59.987 66)"> <path transform="matrix(.49989 0 0 .49989 284.02 228)" d="m8 0c-4.425 0-8 1.8-8 4v8c0 2.2 3.575 4 8 4s8-1.8 8-4v-8c0-2.2-3.575-4-8-4z" fill="#353536" stroke-width=".25"/> <path d="m288.02 232c-2.212 0-3.9991-0.89981-3.9991-1.9996v3.9991c0 1.0998 1.7871 1.9996 3.9991 1.9996s3.9991-0.89981 3.9991-1.9996v-3.9991c0 1.0998-1.7871 1.9996-3.9991 1.9996z" opacity=".11" stroke-width=".12497"/> <path transform="matrix(1.5253 0 0 1 -150.25 0)" d="m284.93 230.5h2.204a0.1992 0.1992 135 0 0 0.1992-0.1992v-0.56396a0.23684 0.23684 45 0 0-0.23684-0.23684h-2.146a0.23904 0.23904 135 0 0-0.23904 0.23904v0.54223a0.21873 0.21873 45 0 0 0.21873 0.21873z" fill="#e1e4e4" style="paint-order:stroke fill markers"/> <path d="m288.02 228c-1.1072 0.0122-2.2607 0.19869-3.207 0.8067-0.46129 0.29366-0.89533 0.81595-0.77155 1.3983 0.1573 0.65527 0.77978 1.0506 1.3602 1.3049 1.2091 0.50769 2.568 0.58749 3.8547 0.39265 0.8708-0.15297 1.7785-0.42952 2.4103-1.081 0.35008-0.35254 0.47577-0.93297 0.20035-1.3668-0.40237-0.65255-1.1512-0.97403-1.8562-1.1888-0.64607-0.18463-1.3197-0.26351-1.9907-0.26603z" fill="#fff" opacity=".1" stroke-width=".25"/> </g> <g transform="translate(47.99 59.999)"> <path transform="matrix(.49989 0 0 .49989 284.02 228)" d="m8 0c-4.425 0-8 1.8-8 4v8c0 2.2 3.575 4 8 4s8-1.8 8-4v-8c0-2.2-3.575-4-8-4z" fill="#353536" stroke-width=".25"/> <path d="m288.02 232c-2.212 0-3.9991-0.89981-3.9991-1.9996v3.9991c0 1.0998 1.7871 1.9996 3.9991 1.9996s3.9991-0.89981 3.9991-1.9996v-3.9991c0 1.0998-1.7871 1.9996-3.9991 1.9996z" opacity=".11" stroke-width=".12497"/> <path transform="matrix(1.5253 0 0 1 -150.25 0)" d="m284.93 230.5h2.204a0.1992 0.1992 135 0 0 0.1992-0.1992v-0.56396a0.23684 0.23684 45 0 0-0.23684-0.23684h-2.146a0.23904 0.23904 135 0 0-0.23904 0.23904v0.54223a0.21873 0.21873 45 0 0 0.21873 0.21873z" fill="#e1e4e4" style="paint-order:stroke fill markers"/> <path d="m288.02 228c-1.1072 0.0122-2.2607 0.19869-3.207 0.8067-0.46129 0.29366-0.89533 0.81595-0.77155 1.3983 0.1573 0.65527 0.77978 1.0506 1.3602 1.3049 1.2091 0.50769 2.568 0.58749 3.8547 0.39265 0.8708-0.15297 1.7785-0.42952 2.4103-1.081 0.35008-0.35254 0.47577-0.93297 0.20035-1.3668-0.40237-0.65255-1.1512-0.97403-1.8562-1.1888-0.64607-0.18463-1.3197-0.26351-1.9907-0.26603z" fill="#fff" opacity=".1" stroke-width=".25"/> </g> <g transform="translate(35.992 53.998)"> <path transform="matrix(.49989 0 0 .49989 284.02 228)" d="m8 0c-4.425 0-8 1.8-8 4v8c0 2.2 3.575 4 8 4s8-1.8 8-4v-8c0-2.2-3.575-4-8-4z" fill="#353536" stroke-width=".25"/> <path d="m288.02 232c-2.212 0-3.9991-0.89981-3.9991-1.9996v3.9991c0 1.0998 1.7871 1.9996 3.9991 1.9996s3.9991-0.89981 3.9991-1.9996v-3.9991c0 1.0998-1.7871 1.9996-3.9991 1.9996z" opacity=".11" stroke-width=".12497"/> <path transform="matrix(1.5253 0 0 1 -150.25 0)" d="m284.93 230.5h2.204a0.1992 0.1992 135 0 0 0.1992-0.1992v-0.56396a0.23684 0.23684 45 0 0-0.23684-0.23684h-2.146a0.23904 0.23904 135 0 0-0.23904 0.23904v0.54223a0.21873 0.21873 45 0 0 0.21873 0.21873z" fill="#e1e4e4" style="paint-order:stroke fill markers"/> <path d="m288.02 228c-1.1072 0.0122-2.2607 0.19869-3.207 0.8067-0.46129 0.29366-0.89533 0.81595-0.77155 1.3983 0.1573 0.65527 0.77978 1.0506 1.3602 1.3049 1.2091 0.50769 2.568 0.58749 3.8547 0.39265 0.8708-0.15297 1.7785-0.42952 2.4103-1.081 0.35008-0.35254 0.47577-0.93297 0.20035-1.3668-0.40237-0.65255-1.1512-0.97403-1.8562-1.1888-0.64607-0.18463-1.3197-0.26351-1.9907-0.26603z" fill="#fff" opacity=".1" stroke-width=".25"/> </g> <g transform="translate(23.995 47.997)"> <path transform="matrix(.49989 0 0 .49989 284.02 228)" d="m8 0c-4.425 0-8 1.8-8 4v8c0 2.2 3.575 4 8 4s8-1.8 8-4v-8c0-2.2-3.575-4-8-4z" fill="#353536" stroke-width=".25"/> <path d="m288.02 232c-2.212 0-3.9991-0.89981-3.9991-1.9996v3.9991c0 1.0998 1.7871 1.9996 3.9991 1.9996s3.9991-0.89981 3.9991-1.9996v-3.9991c0 1.0998-1.7871 1.9996-3.9991 1.9996z" opacity=".11" stroke-width=".12497"/> <path transform="matrix(1.5253 0 0 1 -150.25 0)" d="m284.93 230.5h2.204a0.1992 0.1992 135 0 0 0.1992-0.1992v-0.56396a0.23684 0.23684 45 0 0-0.23684-0.23684h-2.146a0.23904 0.23904 135 0 0-0.23904 0.23904v0.54223a0.21873 0.21873 45 0 0 0.21873 0.21873z" fill="#e1e4e4" style="paint-order:stroke fill markers"/> <path d="m288.02 228c-1.1072 0.0122-2.2607 0.19869-3.207 0.8067-0.46129 0.29366-0.89533 0.81595-0.77155 1.3983 0.1573 0.65527 0.77978 1.0506 1.3602 1.3049 1.2091 0.50769 2.568 0.58749 3.8547 0.39265 0.8708-0.15297 1.7785-0.42952 2.4103-1.081 0.35008-0.35254 0.47577-0.93297 0.20035-1.3668-0.40237-0.65255-1.1512-0.97403-1.8562-1.1888-0.64607-0.18463-1.3197-0.26351-1.9907-0.26603z" fill="#fff" opacity=".1" stroke-width=".25"/> </g> <g transform="translate(11.997 41.997)"> <path transform="matrix(.49989 0 0 .49989 284.02 228)" d="m8 0c-4.425 0-8 1.8-8 4v8c0 2.2 3.575 4 8 4s8-1.8 8-4v-8c0-2.2-3.575-4-8-4z" fill="#353536" stroke-width=".25"/> <path d="m288.02 232c-2.212 0-3.9991-0.89981-3.9991-1.9996v3.9991c0 1.0998 1.7871 1.9996 3.9991 1.9996s3.9991-0.89981 3.9991-1.9996v-3.9991c0 1.0998-1.7871 1.9996-3.9991 1.9996z" opacity=".11" stroke-width=".12497"/> <path transform="matrix(1.5253 0 0 1 -150.25 0)" d="m284.93 230.5h2.204a0.1992 0.1992 135 0 0 0.1992-0.1992v-0.56396a0.23684 0.23684 45 0 0-0.23684-0.23684h-2.146a0.23904 0.23904 135 0 0-0.23904 0.23904v0.54223a0.21873 0.21873 45 0 0 0.21873 0.21873z" fill="#e1e4e4" style="paint-order:stroke fill markers"/> <path d="m288.02 228c-1.1072 0.0122-2.2607 0.19869-3.207 0.8067-0.46129 0.29366-0.89533 0.81595-0.77155 1.3983 0.1573 0.65527 0.77978 1.0506 1.3602 1.3049 1.2091 0.50769 2.568 0.58749 3.8547 0.39265 0.8708-0.15297 1.7785-0.42952 2.4103-1.081 0.35008-0.35254 0.47577-0.93297 0.20035-1.3668-0.40237-0.65255-1.1512-0.97403-1.8562-1.1888-0.64607-0.18463-1.3197-0.26351-1.9907-0.26603z" fill="#fff" opacity=".1" stroke-width=".25"/> </g> <g transform="translate(-1.676e-5 35.996)"> <path transform="matrix(.49989 0 0 .49989 284.02 228)" d="m8 0c-4.425 0-8 1.8-8 4v8c0 2.2 3.575 4 8 4s8-1.8 8-4v-8c0-2.2-3.575-4-8-4z" fill="#353536" stroke-width=".25"/> <path d="m288.02 232c-2.212 0-3.9991-0.89981-3.9991-1.9996v3.9991c0 1.0998 1.7871 1.9996 3.9991 1.9996s3.9991-0.89981 3.9991-1.9996v-3.9991c0 1.0998-1.7871 1.9996-3.9991 1.9996z" opacity=".11" stroke-width=".12497"/> <path transform="matrix(1.5253 0 0 1 -150.25 0)" d="m284.93 230.5h2.204a0.1992 0.1992 135 0 0 0.1992-0.1992v-0.56396a0.23684 0.23684 45 0 0-0.23684-0.23684h-2.146a0.23904 0.23904 135 0 0-0.23904 0.23904v0.54223a0.21873 0.21873 45 0 0 0.21873 0.21873z" fill="#e1e4e4" style="paint-order:stroke fill markers"/> <path d="m288.02 228c-1.1072 0.0122-2.2607 0.19869-3.207 0.8067-0.46129 0.29366-0.89533 0.81595-0.77155 1.3983 0.1573 0.65527 0.77978 1.0506 1.3602 1.3049 1.2091 0.50769 2.568 0.58749 3.8547 0.39265 0.8708-0.15297 1.7785-0.42952 2.4103-1.081 0.35008-0.35254 0.47577-0.93297 0.20035-1.3668-0.40237-0.65255-1.1512-0.97403-1.8562-1.1888-0.64607-0.18463-1.3197-0.26351-1.9907-0.26603z" fill="#fff" opacity=".1" stroke-width=".25"/> </g> <g transform="translate(-11.997 29.995)"> <path transform="matrix(.49989 0 0 .49989 284.02 228)" d="m8 0c-4.425 0-8 1.8-8 4v8c0 2.2 3.575 4 8 4s8-1.8 8-4v-8c0-2.2-3.575-4-8-4z" fill="#353536" stroke-width=".25"/> <path d="m288.02 232c-2.212 0-3.9991-0.89981-3.9991-1.9996v3.9991c0 1.0998 1.7871 1.9996 3.9991 1.9996s3.9991-0.89981 3.9991-1.9996v-3.9991c0 1.0998-1.7871 1.9996-3.9991 1.9996z" opacity=".11" stroke-width=".12497"/> <path transform="matrix(1.5253 0 0 1 -150.25 0)" d="m284.93 230.5h2.204a0.1992 0.1992 135 0 0 0.1992-0.1992v-0.56396a0.23684 0.23684 45 0 0-0.23684-0.23684h-2.146a0.23904 0.23904 135 0 0-0.23904 0.23904v0.54223a0.21873 0.21873 45 0 0 0.21873 0.21873z" fill="#e1e4e4" style="paint-order:stroke fill markers"/> <path d="m288.02 228c-1.1072 0.0122-2.2607 0.19869-3.207 0.8067-0.46129 0.29366-0.89533 0.81595-0.77155 1.3983 0.1573 0.65527 0.77978 1.0506 1.3602 1.3049 1.2091 0.50769 2.568 0.58749 3.8547 0.39265 0.8708-0.15297 1.7785-0.42952 2.4103-1.081 0.35008-0.35254 0.47577-0.93297 0.20035-1.3668-0.40237-0.65255-1.1512-0.97403-1.8562-1.1888-0.64607-0.18463-1.3197-0.26351-1.9907-0.26603z" fill="#fff" opacity=".1" stroke-width=".25"/> </g> <g transform="translate(-23.995 23.994)"> <path transform="matrix(.49989 0 0 .49989 284.02 228)" d="m8 0c-4.425 0-8 1.8-8 4v8c0 2.2 3.575 4 8 4s8-1.8 8-4v-8c0-2.2-3.575-4-8-4z" fill="#353536" stroke-width=".25"/> <path d="m288.02 232c-2.212 0-3.9991-0.89981-3.9991-1.9996v3.9991c0 1.0998 1.7871 1.9996 3.9991 1.9996s3.9991-0.89981 3.9991-1.9996v-3.9991c0 1.0998-1.7871 1.9996-3.9991 1.9996z" opacity=".11" stroke-width=".12497"/> <path transform="matrix(1.5253 0 0 1 -150.25 0)" d="m284.93 230.5h2.204a0.1992 0.1992 135 0 0 0.1992-0.1992v-0.56396a0.23684 0.23684 45 0 0-0.23684-0.23684h-2.146a0.23904 0.23904 135 0 0-0.23904 0.23904v0.54223a0.21873 0.21873 45 0 0 0.21873 0.21873z" fill="#e1e4e4" style="paint-order:stroke fill markers"/> <path d="m288.02 228c-1.1072 0.0122-2.2607 0.19869-3.207 0.8067-0.46129 0.29366-0.89533 0.81595-0.77155 1.3983 0.1573 0.65527 0.77978 1.0506 1.3602 1.3049 1.2091 0.50769 2.568 0.58749 3.8547 0.39265 0.8708-0.15297 1.7785-0.42952 2.4103-1.081 0.35008-0.35254 0.47577-0.93297 0.20035-1.3668-0.40237-0.65255-1.1512-0.97403-1.8562-1.1888-0.64607-0.18463-1.3197-0.26351-1.9907-0.26603z" fill="#fff" opacity=".1" stroke-width=".25"/> </g> <path d="m384 324 7.9983-4-7.9983-4-7.9983 4z" fill="#fff" opacity=".6" style="paint-order:stroke fill markers"/> </g> </g> </svg>